<svg width="32" height="32" viewBox="0 0 32 32" fill="none" xmlns="http://www.w3.org/2000/svg">
<path fill-rule="evenodd" clip-rule="evenodd" d="M16 31C24.2843 31 31 24.2843 31 16C31 7.71573 24.2843 1 16 1C7.71573 1 1 7.71573 1 16C1 24.2843 7.71573 31 16 31ZM16 20C18.2091 20 20 18.2091 20 16C20 13.7909 18.2091 12 16 12C13.7909 12 12 13.7909 12 16C12 18.2091 13.7909 20 16 20Z" fill="#4C4050"/>
<path d="M9.75 5.17468C10.886 4.51884 12.1181 4.04588 13.4011 3.77316" stroke="#B2A4C4" stroke-linecap="round"/>
<path d="M11.2331 6.64443C11.8214 6.3447 12.4366 6.10111 13.0706 5.91692" stroke="#B2A4C4" stroke-linecap="round"/>
<path d="M22.25 26.8253C21.114 27.4812 19.8819 27.9541 18.5989 28.2268" stroke="#88769F" stroke-linecap="round"/>
<path d="M20.7669 25.3556C20.1786 25.6553 19.5634 25.8989 18.9294 26.0831" stroke="#88769F" stroke-linecap="round"/>
<path fill-rule="evenodd" clip-rule="evenodd" d="M16 24C20.4183 24 24 20.4183 24 16C24 11.5817 20.4183 8 16 8C11.5817 8 8 11.5817 8 16C8 20.4183 11.5817 24 16 24ZM16 19C17.6569 19 19 17.6569 19 16C19 14.3431 17.6569 13 16 13C14.3431 13 13 14.3431 13 16C13 17.6569 14.3431 19 16 19Z" fill="#CC6922"/>
</svg>
