<svg width="284" height="75" viewBox="0 0 284 75" fill="black" xmlns="http://www.w3.org/2000/svg">
<path d="M31.341 2.2H40.041L70.341 73H59.141L52.041 55.5H18.341L11.341 73H0.141016L31.341 2.2ZM48.541 47.1L35.341 14.6H35.141L21.741 47.1H48.541ZM79.5512 2.2H104.451C108.985 2.2 112.718 2.83333 115.651 4.1C118.585 5.3 120.885 6.86667 122.551 8.8C124.285 10.6667 125.485 12.8 126.151 15.2C126.818 17.5333 127.151 19.8 127.151 22C127.151 24.2667 126.751 26.4667 125.951 28.6C125.151 30.6667 123.985 32.5667 122.451 34.3C120.985 35.9667 119.151 37.4 116.951 38.6C114.818 39.7333 112.418 40.4333 109.751 40.7L129.851 73H117.851L99.8512 41.8H89.1512V73H79.5512V2.2ZM89.1512 33.4H101.751C103.618 33.4 105.451 33.2667 107.251 33C109.118 32.6667 110.751 32.1 112.151 31.3C113.618 30.5 114.785 29.3667 115.651 27.9C116.518 26.3667 116.951 24.4 116.951 22C116.951 19.6 116.518 17.6667 115.651 16.2C114.785 14.6667 113.618 13.5 112.151 12.7C110.751 11.9 109.118 11.3667 107.251 11.1C105.451 10.7667 103.618 10.6 101.751 10.6H89.1512V33.4ZM140.684 2.2H186.384V11.2H150.284V32.3H183.884V41.3H150.284V64H188.184V73H140.684V2.2ZM251.117 17.5C249.117 14.9 246.583 12.9 243.517 11.5C240.45 10.1 237.283 9.4 234.017 9.4C230.017 9.4 226.383 10.1667 223.117 11.7C219.917 13.1667 217.15 15.2 214.817 17.8C212.55 20.4 210.783 23.4667 209.517 27C208.25 30.4667 207.617 34.2 207.617 38.2C207.617 41.9333 208.217 45.4667 209.417 48.8C210.617 52.1333 212.35 55.0667 214.617 57.6C216.883 60.1333 219.65 62.1333 222.917 63.6C226.183 65.0667 229.883 65.8 234.017 65.8C238.083 65.8 241.65 64.9667 244.717 63.3C247.783 61.6333 250.383 59.3 252.517 56.3L260.617 62.4C260.083 63.1333 259.15 64.2 257.817 65.6C256.483 66.9333 254.717 68.3 252.517 69.7C250.317 71.0333 247.65 72.2 244.517 73.2C241.45 74.2667 237.883 74.8 233.817 74.8C228.217 74.8 223.15 73.7333 218.617 71.6C214.15 69.4667 210.317 66.6667 207.117 63.2C203.983 59.7333 201.583 55.8333 199.917 51.5C198.25 47.1 197.417 42.6667 197.417 38.2C197.417 32.7333 198.317 27.7 200.117 23.1C201.917 18.4333 204.417 14.4333 207.617 11.1C210.883 7.7 214.783 5.06667 219.317 3.2C223.85 1.33333 228.85 0.399999 234.317 0.399999C238.983 0.399999 243.55 1.3 248.017 3.09999C252.55 4.89999 256.25 7.66666 259.117 11.4L251.117 17.5ZM277.027 73.6C275.227 73.6 273.66 72.9667 272.327 71.7C271.06 70.3667 270.427 68.8 270.427 67C270.427 65.2 271.06 63.6667 272.327 62.4C273.66 61.0667 275.227 60.4 277.027 60.4C278.827 60.4 280.36 61.0667 281.627 62.4C282.96 63.6667 283.627 65.2 283.627 67C283.627 68.8 282.96 70.3667 281.627 71.7C280.36 72.9667 278.827 73.6 277.027 73.6Z" />
</svg>
