<svg width="299" height="18" viewBox="0 0 299 18" fill="black" xmlns="http://www.w3.org/2000/svg">
<path d="M3.87647 8.422C3.44447 7.396 3.10247 6.226 2.61647 4.138C2.52647 3.76 2.41847 3.436 2.16647 3.13C2.11247 3.058 2.02247 2.932 2.02247 2.842C2.02247 2.626 2.27447 2.554 2.50847 2.554C2.79647 2.554 3.62447 2.788 4.00247 2.95C4.41647 3.13 4.48847 3.256 4.48847 3.436C4.48847 3.67 4.39847 3.958 4.39847 4.138C4.39847 4.282 4.41647 4.642 4.48847 5.092C4.59647 5.776 4.79447 6.874 5.15447 7.702C6.09047 7.216 7.09847 6.676 8.19647 6.064C8.66447 5.794 8.84447 5.614 8.91647 5.308C8.98847 5.002 9.07847 4.822 9.20447 4.822C9.38447 4.822 9.52847 4.858 9.70847 4.984C10.3925 5.452 10.8605 6.136 10.8605 6.55C10.8605 6.82 10.6985 6.946 10.1585 7.108C7.00847 8.35 4.95647 9.25 3.66047 10.114C2.56247 10.852 1.68047 11.752 1.68047 12.688C1.68047 13.732 2.52647 14.29 5.08247 14.29C6.63047 14.29 7.81847 14.182 8.79047 14.002C9.15047 13.822 9.42047 13.75 9.61847 13.75C10.5185 13.75 11.1845 14.416 11.1845 14.92C11.1845 15.334 10.9325 15.532 10.4105 15.622C9.49247 15.784 7.76447 15.856 5.82047 15.856C2.63447 15.856 0.492469 15.028 0.492469 12.778C0.492469 11.23 1.30247 10.06 3.87647 8.422ZM33.078 7.36C35.796 7.954 37.056 9.448 37.056 11.482C37.056 13.336 36.066 14.56 34.392 15.28C33.474 15.694 31.494 16.072 30.72 16.072C30.414 16.072 30.306 15.964 30.306 15.766C30.306 15.586 30.378 15.496 30.648 15.424C34.302 14.398 35.238 12.886 35.238 11.212C35.238 9.664 34.356 8.638 32.826 8.35C31.998 10.114 31.08 11.284 29.712 12.688C29.964 13.21 30.108 13.606 30.108 13.786C30.108 14.146 29.82 14.47 29.406 14.47C29.1 14.47 28.848 14.38 28.488 13.696C27.282 14.758 26.058 15.388 25.554 15.388C25.086 15.388 24.834 15.136 24.582 14.758C24.114 14.02 23.736 13.39 23.736 12.76C23.736 11.284 24.996 9.628 27.696 8.296C27.714 7.378 27.768 6.73 27.822 6.118C27.048 6.226 25.788 6.37 25.356 6.37C25.212 6.37 25.05 6.298 24.906 6.154C24.6 5.884 24.33 5.506 24.33 5.308C24.33 5.146 24.456 5.146 24.708 5.146C25.806 5.146 26.886 5.038 28.002 4.894C28.128 3.994 28.164 3.652 28.164 3.346C28.164 3.148 28.092 2.86 27.966 2.392C27.966 2.212 28.02 2.122 28.29 2.122C28.542 2.122 28.956 2.158 29.676 2.59C30.018 2.788 30.18 2.968 30.18 3.166C30.18 3.364 30.144 3.454 30.054 3.544C29.82 3.796 29.712 4.12 29.55 4.696C30.846 4.462 31.53 4.3 32.034 4.138C32.178 4.084 32.358 4.03 32.502 3.922C32.664 3.796 32.934 3.688 33.168 3.688C33.798 3.688 34.518 4.03 34.518 4.462C34.518 4.822 34.338 5.02 33.618 5.182C32.538 5.416 31.152 5.686 29.28 5.956C29.172 6.604 29.118 7.108 29.082 7.774C29.802 7.576 30.648 7.432 31.566 7.36C31.638 7.09 31.674 6.784 31.692 6.46C31.71 6.136 31.782 6.064 31.926 6.064C32.124 6.064 32.952 6.568 33.078 7.36ZM29.01 8.818C29.028 9.79 29.136 10.654 29.298 11.374C30.126 10.402 30.846 9.286 31.314 8.26C30.522 8.332 29.784 8.512 29.01 8.818ZM27.714 9.412C26.76 10.024 26.094 10.69 25.662 11.266C25.158 11.95 24.888 12.472 24.888 12.832C24.888 13.066 24.996 13.246 25.212 13.534C25.356 13.732 25.572 13.858 25.788 13.876C25.878 13.876 26.004 13.858 26.112 13.804C26.58 13.588 27.318 13.084 28.074 12.4C27.894 11.446 27.732 10.366 27.714 9.412ZM58.4762 14.308C59.7362 13.624 60.1142 12.706 60.1142 11.428C60.1142 9.862 59.1242 8.854 57.5042 8.854C55.4522 8.854 53.4902 9.646 50.9342 12.382C50.5562 12.796 50.3762 12.886 50.1962 12.886C49.9622 12.886 49.8002 12.742 49.6202 12.418C49.4582 12.13 49.3682 11.842 49.3682 11.554C49.3682 11.41 49.4042 11.302 49.6202 11.176C49.7642 11.086 49.9802 10.924 50.3762 10.564C52.5002 8.62 54.4442 6.568 56.6762 4.066C55.7942 4.228 54.5342 4.516 53.1122 4.876C52.8782 4.984 52.7162 5.02 52.5542 5.02C52.3382 5.02 52.1582 4.948 51.7802 4.516C51.3842 4.048 51.2762 3.868 51.2762 3.634C51.2762 3.508 51.3482 3.472 51.5462 3.472C51.9422 3.508 52.4102 3.508 52.5182 3.508C52.9682 3.508 53.9762 3.382 55.4342 3.166C56.7482 2.968 57.1982 2.824 57.3602 2.698C57.5042 2.59 57.6662 2.482 57.8642 2.482C58.0442 2.482 58.2602 2.572 58.6922 2.914C59.0882 3.238 59.3762 3.544 59.3762 3.778C59.3762 4.048 59.2322 4.192 58.6922 4.444C57.2342 5.758 55.6502 7.144 53.8682 8.8C55.1642 8.188 56.5502 7.864 57.4682 7.864C60.1502 7.864 61.8962 9.232 61.8962 11.518C61.8962 14.686 59.4662 16.108 56.0822 16.108C53.9402 16.108 52.6982 15.262 52.6982 13.858C52.6982 12.85 53.6882 12.13 54.9482 12.13C56.7302 12.13 57.9362 13.192 58.4762 14.308ZM57.0002 14.866C56.5502 14.038 55.6502 13.102 54.7322 13.102C54.0842 13.102 53.6342 13.444 53.6342 13.858C53.6342 14.47 54.4622 14.992 55.6682 14.992C56.1542 14.992 56.5322 14.974 57.0002 14.866ZM80.8591 5.398C81.8671 5.326 82.8391 5.29 83.8471 5.218C83.9191 5.218 84.1171 5.164 84.2971 5.056C84.4771 4.948 84.5311 4.93 84.6931 4.93C84.8371 4.93 84.9991 4.984 85.1251 5.056C85.5571 5.326 86.0071 5.686 86.2231 5.938C86.3671 6.082 86.4391 6.226 86.4391 6.406C86.4391 6.55 86.3131 6.766 86.1691 6.892C86.0791 7.018 86.0251 7.126 85.9531 7.378C84.7111 12.166 81.9751 14.884 77.9071 16.072C77.8531 16.09 77.6371 16.144 77.4931 16.144C77.3311 16.144 77.1871 16.054 77.1871 15.856C77.1871 15.64 77.3131 15.532 77.5291 15.424C81.5611 13.57 83.5951 10.168 84.1531 6.496C81.3811 6.622 79.2751 6.73 76.8811 6.964C76.7371 6.964 76.6291 6.946 76.3951 6.838C76.3591 7.918 76.3411 8.998 76.3411 9.574C76.3411 10.222 76.0891 10.6 75.6031 10.6C75.0091 10.6 74.5771 10.078 74.5771 9.106C74.7031 8.656 74.7211 8.206 74.7211 7.072C74.7211 6.28 74.6491 6.082 74.5231 5.758C74.4871 5.668 74.4151 5.488 74.4151 5.38C74.4151 5.236 74.5051 5.128 74.6671 5.128C74.8291 5.128 75.1351 5.218 75.2791 5.29C75.5311 5.416 75.7651 5.56 75.9991 5.686C77.0431 5.65 78.2671 5.578 79.2571 5.506C79.2571 4.606 79.2391 4.174 79.2031 3.742C79.1851 3.418 79.1131 3.094 78.9871 2.806C78.9151 2.644 78.8971 2.536 78.8971 2.428C78.8971 2.266 78.9871 2.194 79.1851 2.194C79.4731 2.194 80.3191 2.356 80.8051 2.554C81.0751 2.662 81.2011 2.842 81.2011 2.968C81.2011 3.112 81.1831 3.274 81.0931 3.4C80.9671 3.598 80.9131 3.85 80.8951 4.048C80.8771 4.39 80.8591 4.714 80.8591 5.398ZM104.883 8.944C105.063 9.106 105.171 9.25 105.171 9.448C105.171 9.556 105.117 9.772 105.045 9.934C104.973 11.014 104.937 11.77 104.883 13.84C106.035 13.804 106.503 13.786 107.475 13.75C107.871 13.732 108.249 13.678 108.501 13.534C109.473 13.714 109.959 14.164 109.959 14.614C109.959 14.992 109.653 15.1 109.383 15.1C108.339 15.028 107.277 15.01 106.215 15.01C104.397 15.01 102.165 15.154 100.203 15.37C100.059 15.388 99.8613 15.442 99.7353 15.442C99.4473 15.442 99.2133 15.19 98.7813 14.614C98.7273 14.542 98.6373 14.398 98.6373 14.272C98.6373 14.164 98.7453 14.128 98.8533 14.128C100.455 14.092 101.697 14.02 103.425 13.912C103.443 12.04 103.461 10.942 103.461 9.772C103.461 9.574 103.425 9.25 103.389 9.016C102.543 9.088 101.823 9.142 101.013 9.196C100.869 9.196 100.761 9.142 100.653 9.016C100.347 8.71 100.077 8.278 100.077 8.062C100.077 7.972 100.131 7.936 100.293 7.936C100.545 7.954 100.815 7.972 101.103 7.972C101.283 7.972 101.841 7.954 102.525 7.918C103.587 7.864 104.613 7.792 106.197 7.63C106.719 7.576 106.917 7.486 107.133 7.36C107.475 7.396 107.763 7.504 108.087 7.684C108.321 7.828 108.501 8.044 108.501 8.278C108.501 8.71 108.159 8.764 107.619 8.782C106.665 8.854 105.819 8.89 104.883 8.944ZM132.75 1.744C133.182 1.744 133.956 2.014 134.604 2.5C135.18 2.914 135.414 3.364 135.414 3.652C135.414 4.03 135.18 4.246 134.838 4.246C134.514 4.246 134.334 4.048 133.956 3.598C133.542 3.094 133.092 2.59 132.624 2.104C132.516 1.996 132.48 1.942 132.48 1.888C132.48 1.78 132.588 1.744 132.75 1.744ZM134.496 0.321999C134.928 0.321999 135.666 0.501999 136.26 0.897999C136.854 1.294 137.106 1.636 137.106 2.086C137.106 2.464 136.89 2.698 136.548 2.698C136.224 2.698 136.026 2.518 135.648 2.05C135.252 1.564 134.784 1.06 134.406 0.7C134.28 0.591999 134.244 0.538 134.244 0.483999C134.244 0.358 134.352 0.321999 134.496 0.321999ZM123.264 15.568C123.264 15.406 123.372 15.298 123.588 15.19C127.98 13.03 130.176 9.718 131.454 5.542C128.214 5.776 125.55 6.046 122.76 6.388C122.472 6.388 122.328 6.226 122.04 5.848C121.68 5.38 121.644 5.2 121.644 5.002C121.644 4.858 121.734 4.804 121.986 4.786C125.37 4.66 128.214 4.462 130.968 4.228C131.256 4.21 131.616 4.12 131.814 4.012C131.994 3.904 132.084 3.868 132.21 3.868C132.318 3.868 132.48 3.922 132.696 4.048C133.038 4.246 133.434 4.588 133.83 4.984C133.92 5.074 134.01 5.236 134.01 5.398C134.01 5.632 133.884 5.776 133.65 5.974C133.452 6.154 133.254 6.478 133.11 6.856C131.328 11.428 128.43 14.506 123.966 15.874C123.822 15.91 123.66 15.928 123.552 15.928C123.39 15.928 123.264 15.748 123.264 15.568ZM152.977 4.282L153.427 4.192C153.751 4.12 153.949 3.976 154.111 3.85C155.227 3.958 155.641 4.336 155.641 4.642C155.641 5.002 155.497 5.164 154.723 5.236C154.201 5.29 153.625 5.362 152.977 5.452V6.784L154.183 6.622C154.417 6.586 154.705 6.514 154.957 6.334C156.109 6.478 156.613 6.892 156.613 7.216C156.613 7.576 156.415 7.738 155.767 7.774C154.831 7.828 153.877 7.918 152.959 8.008V9.322L154.129 9.214C154.399 9.196 154.597 9.106 154.831 8.944C155.623 9.142 156.343 9.772 156.343 10.132C156.343 10.258 156.289 10.384 156.217 10.492C156.109 10.672 156.037 11.032 156.019 11.302C156.001 11.932 156.019 12.886 155.947 14.02C155.893 14.866 155.407 15.55 155.101 15.55C154.903 15.55 154.705 15.46 154.561 15.334C153.967 14.794 153.589 14.398 153.301 13.984C153.229 13.894 153.193 13.822 153.193 13.75C153.193 13.66 153.301 13.624 153.463 13.624C153.769 13.66 154.147 13.714 154.453 13.732C154.525 12.688 154.543 11.266 154.543 10.294C153.967 10.33 153.445 10.366 152.959 10.42L152.941 15.46C152.941 16.666 152.653 16.936 152.329 16.936C151.807 16.936 151.393 16.27 151.267 15.334C151.429 14.812 151.483 14.272 151.483 13.318V10.564L149.899 10.78L150.007 13.966C150.007 14.83 149.737 15.064 149.431 15.064C149.035 15.064 148.693 14.776 148.513 13.768C148.549 13.552 148.567 13.354 148.567 12.94C148.567 12.58 148.549 12.058 148.513 11.212C148.477 10.582 148.351 10.222 148.225 9.952C148.153 9.826 148.135 9.7 148.135 9.556C148.135 9.448 148.225 9.376 148.333 9.376C148.513 9.376 148.981 9.52 149.395 9.718C150.043 9.646 150.835 9.556 151.483 9.484L151.501 8.17C150.565 8.278 149.701 8.386 148.945 8.494C148.819 8.512 148.621 8.548 148.459 8.548C148.369 8.548 148.153 8.404 147.919 8.17C147.685 7.918 147.469 7.594 147.469 7.522C147.469 7.468 147.505 7.414 147.721 7.396C148.999 7.27 150.295 7.126 151.501 6.982V5.668L150.511 5.794C150.331 5.794 150.151 5.794 149.701 5.452C149.233 6.028 148.765 6.478 148.369 6.784C148.189 6.928 148.063 7 147.937 7C147.847 7 147.739 6.892 147.739 6.82C147.739 6.766 147.775 6.64 147.847 6.532C148.279 5.884 148.693 5.056 148.927 4.408C149.107 3.922 149.161 3.652 149.161 3.472C149.161 3.238 149.089 3.004 148.981 2.77C148.981 2.608 149.125 2.536 149.269 2.536C149.467 2.536 149.773 2.68 150.169 2.896C150.619 3.148 150.871 3.454 150.871 3.67C150.871 3.904 150.745 4.066 150.601 4.282L150.331 4.66C150.655 4.624 151.213 4.552 151.501 4.498V3.85C151.501 2.95 151.447 2.464 151.249 1.888C151.213 1.78 151.195 1.708 151.195 1.636C151.195 1.546 151.285 1.474 151.429 1.474C151.735 1.474 152.347 1.69 152.815 1.96C153.085 2.104 153.247 2.302 153.247 2.482C153.247 2.662 153.175 2.824 153.103 3.004C153.013 3.238 152.977 3.58 152.977 4.21V4.282ZM160.987 14.524V5.83C160.987 4.462 160.987 3.94 160.969 3.454C160.951 2.86 160.879 2.464 160.645 1.852C160.645 1.636 160.735 1.564 160.915 1.564C161.149 1.564 161.941 1.744 162.463 2.014C162.823 2.212 162.931 2.356 162.931 2.5C162.931 2.68 162.877 2.878 162.805 3.04C162.697 3.238 162.607 3.652 162.607 4.012C162.553 6.586 162.553 8.206 162.553 9.484C162.553 12.112 162.643 13.21 162.661 14.614C162.643 15.64 162.193 16.828 161.599 16.828C161.329 16.828 160.969 16.522 160.627 16.18C159.997 15.532 159.583 15.046 159.313 14.704C159.223 14.578 159.169 14.488 159.169 14.398C159.169 14.308 159.223 14.254 159.349 14.254C159.439 14.254 159.763 14.308 160.087 14.38C160.429 14.452 160.771 14.506 160.987 14.524ZM159.007 6.064V9.628C159.007 10.258 158.719 10.672 158.341 10.672C158.107 10.672 157.855 10.492 157.621 10.132C157.441 9.862 157.351 9.61 157.279 9.196C157.387 8.926 157.459 8.638 157.477 7.792L157.513 5.362C157.513 4.768 157.423 4.354 157.189 3.724C157.189 3.58 157.297 3.508 157.459 3.508C157.693 3.508 158.233 3.688 158.737 3.94C159.079 4.12 159.277 4.3 159.277 4.498C159.277 4.606 159.241 4.75 159.169 4.894C159.079 5.092 159.007 5.578 159.007 6.064ZM183.883 11.95L183.901 8.854C183.901 7.144 183.865 6.586 183.739 6.208C183.451 6.244 183.163 6.298 182.893 6.334C182.749 6.334 182.443 6.19 182.101 5.938C181.399 6.712 180.643 7.378 179.761 7.972C179.689 8.026 179.599 8.044 179.527 8.044C179.401 8.044 179.311 7.972 179.311 7.846C179.311 7.756 179.347 7.666 179.437 7.558C180.391 6.406 181.435 4.948 182.191 3.148C182.371 2.734 182.479 2.356 182.479 2.086C182.479 1.924 182.479 1.78 182.443 1.618C182.443 1.438 182.569 1.366 182.803 1.366C183.055 1.366 183.397 1.492 184.045 1.996C184.351 2.23 184.495 2.428 184.495 2.554C184.495 2.698 184.441 2.842 184.315 3.004C183.991 3.418 183.829 3.652 183.541 4.084C183.289 4.444 183.037 4.786 182.785 5.11C184.855 4.822 186.529 4.516 186.997 4.408C187.465 4.3 187.771 4.192 188.203 3.94C188.959 3.94 189.859 4.426 189.859 4.912C189.859 5.29 189.517 5.452 188.761 5.542C187.357 5.722 186.061 5.884 184.909 6.046C185.395 6.28 185.575 6.514 185.575 6.676C185.575 6.802 185.521 6.928 185.485 7.108C185.431 7.342 185.413 7.504 185.413 7.9V8.26C186.187 8.17 186.763 8.08 187.303 7.99C187.537 7.954 187.789 7.882 188.041 7.738C188.689 7.738 189.481 8.188 189.481 8.602C189.481 8.98 189.247 9.16 188.707 9.196C187.357 9.286 186.349 9.394 185.413 9.52V11.518C186.583 11.374 187.249 11.284 187.681 11.212C187.933 11.176 188.149 11.086 188.383 10.978C188.923 10.978 189.949 11.356 189.949 11.914C189.949 12.238 189.679 12.436 189.103 12.454C187.843 12.49 186.619 12.616 185.395 12.76V16.306C185.395 16.9 185.107 17.134 184.693 17.134C184.225 17.134 183.793 16.432 183.667 15.37C183.829 14.794 183.865 14.29 183.883 11.95ZM178.573 8.476L178.501 15.388C178.483 16.378 178.303 16.702 177.727 16.702C177.331 16.702 176.863 16.09 176.773 15.19C176.899 14.632 176.971 14.002 177.007 13.408C177.079 11.446 177.097 9.952 177.097 8.242C176.503 8.962 175.837 9.664 175.099 10.258C175.027 10.312 174.955 10.33 174.883 10.33C174.757 10.33 174.649 10.222 174.649 10.078C174.649 10.006 174.667 9.934 174.739 9.862C176.341 7.648 177.421 5.632 178.195 3.058C178.285 2.788 178.303 2.608 178.303 2.446C178.303 2.158 178.285 1.996 178.159 1.744C178.177 1.564 178.339 1.456 178.483 1.456C178.843 1.474 179.581 1.888 180.067 2.338C180.247 2.536 180.337 2.68 180.337 2.806C180.337 2.932 180.283 3.076 180.139 3.256C179.941 3.508 179.761 3.886 179.491 4.462C179.131 5.218 178.663 6.046 178.105 6.874C178.627 7.396 178.663 7.576 178.663 7.792C178.663 7.918 178.609 8.26 178.573 8.476ZM209.605 3.67L209.911 3.634C210.379 3.58 210.613 3.508 210.847 3.364C211.693 3.526 212.071 3.958 212.107 4.228C212.305 3.958 212.503 3.688 212.683 3.436C212.809 3.238 212.935 3.022 212.989 2.842C213.007 2.77 213.025 2.68 213.025 2.608C213.025 2.5 213.007 2.392 212.989 2.32C212.989 2.14 213.061 2.068 213.187 2.068C213.457 2.068 213.907 2.302 214.249 2.59C214.663 2.932 214.825 3.13 214.825 3.328C214.825 3.526 214.717 3.634 214.501 3.814C214.339 3.94 214.195 4.102 213.925 4.408C213.385 5.02 212.809 5.632 212.215 6.226L213.763 6.1C214.303 6.064 214.627 5.956 215.023 5.758C216.283 5.992 216.895 6.478 216.895 6.928C216.895 7.234 216.625 7.378 216.283 7.378C215.977 7.36 215.653 7.36 215.347 7.36C214.501 7.36 213.655 7.396 212.827 7.45C212.161 7.486 211.441 7.54 210.703 7.594C209.839 8.332 208.939 9.034 207.985 9.664C209.317 9.502 210.415 9.394 211.513 9.322C211.765 9.304 211.945 9.25 212.251 9.142C212.665 9.232 213.133 9.502 213.421 9.736C213.835 10.06 213.907 10.258 213.907 10.402C213.907 10.564 213.853 10.69 213.745 10.852C213.637 11.032 213.565 11.32 213.565 11.752C213.565 13.606 213.565 14.992 213.529 16C213.493 16.81 213.241 17.206 212.827 17.206C212.485 17.206 212.179 16.954 211.999 16.378C210.667 16.396 209.335 16.45 207.985 16.558C207.931 16.936 207.679 17.242 207.355 17.242C206.977 17.242 206.617 16.9 206.419 15.928C206.491 15.496 206.527 14.83 206.527 12.94C206.527 11.248 206.509 10.978 206.455 10.618C204.979 11.482 203.377 12.22 201.649 12.796C201.559 12.832 201.487 12.832 201.415 12.832C201.235 12.832 201.109 12.742 201.109 12.616C201.109 12.508 201.199 12.382 201.397 12.274C203.701 11.104 206.221 9.538 208.381 7.828C206.707 7.99 204.961 8.224 203.197 8.494C203.017 8.494 202.855 8.44 202.693 8.26C202.225 7.738 202.081 7.522 202.081 7.378C202.081 7.288 202.153 7.252 202.405 7.216C204.277 7 206.149 6.784 208.003 6.604L207.985 5.074C207.193 5.164 206.401 5.272 205.591 5.398C205.339 5.398 205.249 5.29 204.943 4.93C204.655 4.588 204.565 4.372 204.565 4.264C204.565 4.156 204.637 4.12 204.817 4.102C205.969 3.994 206.995 3.904 207.967 3.832V2.86C207.967 2.212 207.877 1.798 207.751 1.528C207.679 1.384 207.625 1.222 207.625 1.096C207.625 0.987999 207.715 0.934 207.877 0.934C208.201 0.934 208.975 1.15 209.479 1.42C209.821 1.618 209.947 1.78 209.947 1.924C209.947 2.104 209.875 2.302 209.803 2.464C209.713 2.662 209.623 3.076 209.605 3.436V3.67ZM208.003 13.57V15.406C209.335 15.316 210.667 15.262 211.999 15.226L212.017 13.354C211.801 13.354 211.621 13.354 211.405 13.354C210.325 13.372 209.209 13.444 208.003 13.57ZM208.003 10.852V12.436C208.939 12.346 209.929 12.256 210.865 12.184C211.117 12.166 211.351 12.112 211.549 12.058C211.711 12.094 211.873 12.13 212.017 12.184L212.035 10.492C210.595 10.564 209.425 10.672 208.003 10.852ZM209.497 6.46L210.019 6.424C210.595 5.884 211.171 5.326 211.675 4.732C211.585 4.75 211.495 4.768 211.369 4.768C210.757 4.804 210.163 4.84 209.551 4.894L209.497 6.46ZM236.52 4.768C236.988 5.254 237.258 5.614 237.258 5.884C237.258 6.1 237.222 6.37 236.952 6.856C235.962 9.322 234.702 11.914 233.622 13.624C233.136 14.398 232.704 14.722 232.02 14.722C231.318 14.722 231.012 14.308 230.616 13.372C230.364 12.778 230.184 12.418 229.824 12.022C229.446 11.59 229.302 11.158 229.302 10.168C229.302 6.82 232.632 3.886 236.844 3.886C240.354 3.886 243.108 6.172 243.108 9.718C243.108 13.462 240.174 15.352 236.556 15.748C236.232 15.748 236.016 15.694 236.016 15.424C236.016 15.28 236.16 15.19 236.376 15.118C239.904 13.984 241.218 11.95 241.218 9.412C241.218 6.604 239.418 4.822 236.52 4.768ZM235.656 4.876C232.956 5.362 230.778 7.738 230.778 10.33C230.778 11.32 231.138 12.112 231.696 12.67C231.894 12.868 231.966 12.886 232.056 12.886C232.146 12.886 232.344 12.814 232.488 12.562C233.586 10.636 234.558 8.53 235.44 6.244C235.584 5.902 235.674 5.47 235.674 5.2C235.674 5.074 235.674 4.966 235.656 4.876ZM261.44 13.408L261.026 14.704C261.17 14.812 261.278 14.956 261.278 15.136C261.278 15.352 261.116 15.496 260.666 15.55C259.766 15.586 258.956 15.694 258.074 15.82C258.056 16.27 257.858 16.522 257.516 16.522C257.138 16.522 256.742 16.054 256.616 15.334C256.616 15.28 256.634 15.226 256.634 15.154C256.634 14.974 256.58 14.704 256.49 14.056C256.31 12.886 256.148 12.472 255.95 12.148C255.86 12.004 255.824 11.914 255.824 11.842C255.824 11.698 255.914 11.644 256.058 11.644C256.256 11.644 256.598 11.698 257.3 11.95C258.29 11.806 259.1 11.68 259.532 11.626C259.982 11.536 260.144 11.5 260.432 11.284C260.738 11.392 261.026 11.554 261.35 11.788C261.746 12.076 261.944 12.31 261.944 12.472C261.944 12.634 261.89 12.724 261.71 12.868C261.602 12.958 261.512 13.138 261.44 13.408ZM257.714 12.922L257.966 14.83C259.028 14.704 259.388 14.65 259.748 14.596L260 12.58C259.352 12.67 258.614 12.778 257.714 12.922ZM269.684 6.046L269.09 7.72C269.432 7.954 269.54 8.062 269.54 8.26C269.54 8.602 269.288 8.728 268.802 8.746C267.524 8.8 266.048 8.98 264.698 9.16C264.698 9.358 264.68 9.466 264.644 9.628C264.608 9.79 264.59 9.952 264.59 10.114C264.518 11.59 264.482 12.67 264.482 13.336C264.482 14.398 264.716 14.668 266.462 14.668C267.416 14.668 268.262 14.524 269 14.326C269.414 14.218 269.576 13.948 269.666 13.66C269.81 13.192 269.864 12.652 269.882 12.256C269.9 12.094 269.954 12.004 270.044 12.004C270.098 12.004 270.17 12.04 270.242 12.13C270.512 12.454 270.764 12.904 271.124 13.57C271.358 14.02 271.484 14.416 271.484 14.686C271.484 15.046 271.124 15.442 270.548 15.64C269.396 16.036 268.298 16.18 266.912 16.18C264.878 16.18 263.96 15.766 263.546 15.19C263.15 14.632 263.042 14.272 263.042 13.048V9.304C262.97 9.268 262.916 9.214 262.844 9.124C262.52 8.728 262.304 8.44 262.304 8.296C262.304 8.188 262.34 8.17 262.502 8.152C264.608 7.936 265.958 7.774 267.65 7.558L268.118 4.912C266.678 5.092 265.454 5.272 264.032 5.542C263.852 5.542 263.69 5.524 263.546 5.362C263.15 4.966 262.898 4.552 262.898 4.408C262.898 4.318 262.934 4.282 263.222 4.264C264.914 4.138 266.228 3.958 267.758 3.688C268.01 3.652 268.208 3.562 268.406 3.382C268.784 3.436 269.27 3.652 269.72 3.958C270.206 4.3 270.332 4.48 270.332 4.696C270.332 4.876 270.224 5.056 270.08 5.2C269.918 5.362 269.846 5.578 269.684 6.046ZM257.642 1.618C258.092 1.636 258.956 1.78 259.532 2.014C260.216 2.284 260.72 2.662 260.72 3.112C260.72 3.562 260.414 3.85 259.982 3.85C259.604 3.85 259.352 3.778 258.83 3.418C258.164 2.95 257.588 2.464 257.336 2.104C257.264 1.996 257.228 1.924 257.228 1.834C257.228 1.708 257.354 1.618 257.642 1.618ZM260.99 4.21C261.692 4.318 262.394 4.624 262.394 5.11C262.394 5.488 262.178 5.632 261.656 5.686C259.532 5.902 257.714 6.154 256.094 6.406C255.95 6.406 255.824 6.334 255.662 6.172C255.392 5.902 255.032 5.452 255.032 5.29C255.032 5.164 255.158 5.128 255.41 5.11C256.958 5.002 258.398 4.822 259.514 4.642C260.414 4.498 260.72 4.372 260.99 4.21ZM259.856 6.802C260.504 6.802 261.188 7.198 261.188 7.612C261.188 7.864 261.044 7.99 260.684 8.026C259.514 8.152 258.146 8.386 257.138 8.566C256.958 8.566 256.868 8.53 256.76 8.422C256.436 8.098 256.148 7.756 256.148 7.612C256.148 7.522 256.238 7.468 256.4 7.45C257.714 7.324 258.65 7.18 259.334 7.036C259.604 6.982 259.712 6.928 259.856 6.802ZM260.072 8.908C260.774 8.908 261.404 9.322 261.404 9.754C261.404 10.006 261.26 10.114 260.9 10.15C259.982 10.258 258.308 10.51 257.318 10.672C257.138 10.672 257.048 10.636 256.94 10.528C256.58 10.186 256.328 9.862 256.328 9.736C256.328 9.646 256.418 9.592 256.58 9.574C257.822 9.43 258.632 9.286 259.55 9.142C259.82 9.106 259.928 9.034 260.072 8.908ZM285.146 8.386L285.164 7.846C285.164 7.648 285.146 7.468 285.092 7.288C284.804 7.324 284.498 7.378 284.228 7.414C284.102 7.414 283.976 7.396 283.67 6.964C283.508 6.748 283.454 6.64 283.436 6.55C283.004 6.838 282.572 7.108 282.05 7.378C281.942 7.432 281.816 7.468 281.762 7.468C281.672 7.468 281.564 7.396 281.564 7.27C281.564 7.18 281.618 7.09 281.726 6.982C283.148 5.668 284.084 4.462 284.84 3.13C284.966 2.896 285.038 2.68 285.038 2.428C285.038 2.32 285.02 2.122 284.966 1.87C284.966 1.744 285.038 1.618 285.236 1.618C285.416 1.618 285.83 1.798 286.298 2.104C286.802 2.428 286.91 2.626 286.91 2.932C286.91 2.986 286.892 3.04 286.874 3.112C287.414 3.22 287.954 3.418 288.458 3.76C288.8 3.994 288.998 4.3 288.998 4.642C288.998 5.038 288.728 5.38 288.35 5.38C288.044 5.38 287.792 5.164 287.522 4.858C287.126 4.372 286.802 3.994 286.442 3.688C285.56 4.714 284.768 5.56 283.76 6.316C284.804 6.226 285.758 6.064 286.37 5.938C286.604 5.884 286.91 5.794 287.18 5.65C287.864 5.776 288.332 6.154 288.332 6.46C288.332 6.748 288.17 6.874 287.864 6.91C287.396 6.964 286.892 7.036 286.37 7.108C286.586 7.252 286.658 7.396 286.658 7.504C286.658 7.63 286.64 7.738 286.622 7.81C286.604 7.918 286.586 8.008 286.568 8.188L286.856 8.152C287.234 8.098 287.378 8.026 287.594 7.882C288.386 8.008 288.872 8.404 288.872 8.692C288.872 8.998 288.692 9.124 288.134 9.178C287.594 9.232 287.072 9.286 286.532 9.358L286.478 13.138C287.09 12.922 287.72 12.688 288.296 12.454C288.368 12.418 288.422 12.418 288.476 12.418C288.638 12.418 288.746 12.508 288.746 12.616C288.746 12.706 288.674 12.814 288.53 12.922C287.216 13.876 285.722 14.722 284.012 15.496C283.724 15.676 283.49 15.784 283.328 15.784C283.13 15.784 282.95 15.676 282.464 15.082C282.158 14.704 282.086 14.506 282.086 14.326C282.086 14.218 282.158 14.128 282.32 14.128C282.59 14.128 282.86 14.11 282.968 14.092C283.616 13.966 284.372 13.786 285.164 13.552L285.146 9.556C284.426 9.664 283.67 9.79 282.896 9.934C282.716 9.934 282.608 9.88 282.41 9.646C282.086 9.25 281.978 9.07 281.978 8.962C281.978 8.854 282.05 8.818 282.23 8.8C283.238 8.656 284.21 8.512 285.146 8.386ZM295.514 6.46L295.73 6.442C295.946 6.424 296.252 6.37 296.558 6.208C297.53 6.406 298.214 6.784 298.214 7.252C298.214 7.54 297.962 7.648 297.584 7.648C297.332 7.63 296.954 7.63 296.558 7.63C296.18 7.63 295.802 7.63 295.532 7.648C294.92 7.684 294.2 7.738 293.39 7.81C293.516 7.9 293.66 7.99 293.804 8.098C293.984 8.206 294.056 8.314 294.056 8.44C294.056 8.584 294.002 8.746 293.984 8.89C293.966 9.016 293.93 9.322 293.93 9.97V10.33C294.308 9.988 294.812 9.448 295.118 8.998C295.334 8.674 295.37 8.584 295.37 8.242C295.37 8.044 295.424 7.954 295.532 7.954C295.712 7.954 296 8.044 296.702 8.638C297.026 8.926 297.098 9.088 297.098 9.232C297.098 9.394 296.99 9.52 296.684 9.646C295.892 10.132 295.1 10.51 294.308 10.798C295.01 11.446 295.676 12.004 296.288 12.454C296.63 12.706 296.954 12.904 297.602 13.318C297.854 13.48 298.286 13.714 298.52 13.84C298.682 13.93 298.79 14.002 298.79 14.11C298.79 14.236 298.718 14.326 298.484 14.38C297.926 14.506 297.152 14.596 296.666 14.596C296.234 14.596 296.036 14.542 295.766 14.182C295.208 13.444 294.596 12.544 293.93 11.59C293.948 13.21 293.984 14.434 294.002 14.902C293.984 15.604 293.894 16.018 293.606 16.45C293.39 16.792 293.138 16.972 292.958 16.972C292.67 16.972 292.418 16.792 292.166 16.54C291.608 16.054 291.194 15.568 290.834 15.136C290.762 15.046 290.726 14.956 290.726 14.902C290.726 14.776 290.798 14.74 290.942 14.74C291.392 14.812 291.95 14.866 292.508 14.884V8.998C292.508 8.71 292.472 8.296 292.346 7.936C291.446 8.026 290.492 8.17 289.52 8.314C289.358 8.314 289.25 8.278 289.088 8.116C288.944 7.972 288.728 7.702 288.566 7.486C288.53 7.432 288.512 7.378 288.512 7.324C288.512 7.252 288.566 7.198 288.71 7.18C290.798 6.928 292.472 6.73 294.11 6.568L294.236 5.344C293.03 5.452 291.878 5.596 290.834 5.776C290.69 5.776 290.564 5.722 290.402 5.542C290.258 5.38 290.096 5.236 289.988 5.056C289.916 4.948 289.88 4.858 289.88 4.804C289.88 4.714 289.952 4.66 290.15 4.642C291.59 4.498 292.94 4.354 294.344 4.246C294.38 3.886 294.416 3.526 294.434 3.166C292.976 3.256 291.914 3.382 290.636 3.58C290.474 3.58 290.384 3.544 290.24 3.382C290.024 3.13 289.844 2.896 289.718 2.698C289.682 2.644 289.664 2.59 289.664 2.536C289.664 2.446 289.754 2.41 289.916 2.392C291.572 2.248 292.706 2.122 293.732 1.996C294.092 1.96 294.416 1.888 294.686 1.636C295.028 1.708 295.406 1.87 295.928 2.266C296.198 2.482 296.432 2.716 296.432 2.932C296.432 3.076 296.36 3.238 296.234 3.382C296.072 3.58 295.946 3.76 295.892 4.138C295.784 4.786 295.658 5.596 295.514 6.46ZM291.14 9.628C291.554 9.934 291.752 10.222 291.752 10.564C291.752 10.978 291.482 11.266 291.05 11.266C290.816 11.266 290.51 11.068 290.204 10.69C289.736 10.114 289.268 9.286 289.268 9.07C289.268 8.98 289.322 8.944 289.448 8.944C289.808 8.944 290.708 9.304 291.14 9.628ZM284.822 12.346C284.822 12.778 284.534 13.084 284.174 13.084C283.868 13.084 283.616 12.85 283.346 12.4C282.896 11.626 282.68 10.834 282.68 10.69C282.68 10.564 282.734 10.51 282.842 10.51C283.112 10.51 283.832 10.906 284.354 11.392C284.696 11.734 284.822 12.076 284.822 12.346ZM287.828 9.592C287.972 9.592 288.206 9.682 288.674 10.06C288.998 10.312 289.052 10.474 289.052 10.6C289.052 10.744 288.962 10.87 288.8 11.014C288.314 11.59 287.936 11.95 287.342 12.382C287.216 12.472 287.108 12.508 287.036 12.508C286.928 12.508 286.874 12.454 286.874 12.328C286.874 12.274 286.892 12.202 286.928 12.112C287.234 11.464 287.414 10.942 287.54 10.438C287.576 10.294 287.594 10.078 287.594 9.952C287.594 9.718 287.666 9.592 287.828 9.592ZM292.22 11.986C291.59 12.886 291.086 13.588 290.474 14.236C290.294 14.506 290.114 14.614 289.97 14.614C289.79 14.614 289.556 14.452 289.178 13.948C288.782 13.39 288.728 13.174 288.728 13.066C288.728 12.904 288.818 12.832 288.98 12.832C289.214 12.868 289.34 12.868 289.52 12.868C289.664 12.868 289.826 12.814 290.024 12.724C290.51 12.472 291.176 12.112 291.86 11.644C291.95 11.572 292.04 11.554 292.112 11.554C292.238 11.554 292.31 11.626 292.31 11.734C292.31 11.806 292.292 11.896 292.22 11.986Z" />
</svg>
